<mxfile host="app.diagrams.net" modified="2021-03-13T07:19:37.624Z" agent="5.0 (Windows NT 10.0; Win64; x64) AppleWebKit/537.36 (KHTML, like Gecko) Chrome/88.0.4324.186 Safari/537.36" etag="9g-V8S_vH4M8uMei25jG" version="14.4.8" type="github">
  <diagram id="C5RBs43oDa-KdzZeNtuy" name="Page-1">
    <mxGraphModel dx="1461" dy="831" grid="1" gridSize="10" guides="1" tooltips="1" connect="1" arrows="1" fold="1" page="1" pageScale="1" pageWidth="583" pageHeight="827" background="#FFFFFF" math="0" shadow="0">
      <root>
        <mxCell id="WIyWlLk6GJQsqaUBKTNV-0" />
        <mxCell id="WIyWlLk6GJQsqaUBKTNV-1" parent="WIyWlLk6GJQsqaUBKTNV-0" />
        <mxCell id="-dxW9wcBUc4BnaEZA0Z--6" value="" style="edgeStyle=orthogonalEdgeStyle;rounded=0;orthogonalLoop=1;jettySize=auto;html=1;" parent="WIyWlLk6GJQsqaUBKTNV-1" source="WIyWlLk6GJQsqaUBKTNV-3" target="-dxW9wcBUc4BnaEZA0Z--0" edge="1">
          <mxGeometry relative="1" as="geometry" />
        </mxCell>
        <mxCell id="WIyWlLk6GJQsqaUBKTNV-3" value="START" style="rounded=1;whiteSpace=wrap;html=1;fontSize=12;glass=0;strokeWidth=1;shadow=0;fillColor=#00CC00;" parent="WIyWlLk6GJQsqaUBKTNV-1" vertex="1">
          <mxGeometry x="210" y="240" width="120" height="40" as="geometry" />
        </mxCell>
        <mxCell id="WIyWlLk6GJQsqaUBKTNV-11" value="&lt;font color=&quot;#ffffff&quot;&gt;STOP&lt;/font&gt;" style="rounded=1;whiteSpace=wrap;html=1;fontSize=12;glass=0;strokeWidth=1;shadow=0;fillColor=#FF0000;strokeColor=#000000;" parent="WIyWlLk6GJQsqaUBKTNV-1" vertex="1">
          <mxGeometry x="381.5" y="590" width="120" height="40" as="geometry" />
        </mxCell>
        <mxCell id="Y4_7NDd8b4az4wbQNTcm-1" value="" style="edgeStyle=orthogonalEdgeStyle;rounded=0;orthogonalLoop=1;jettySize=auto;html=1;" edge="1" parent="WIyWlLk6GJQsqaUBKTNV-1" source="-dxW9wcBUc4BnaEZA0Z--0" target="Y4_7NDd8b4az4wbQNTcm-0">
          <mxGeometry relative="1" as="geometry" />
        </mxCell>
        <mxCell id="-dxW9wcBUc4BnaEZA0Z--0" value="&lt;font color=&quot;#ffffff&quot;&gt;Declare variable name&lt;/font&gt;" style="rounded=0;whiteSpace=wrap;html=1;fillColor=#0000CC;" parent="WIyWlLk6GJQsqaUBKTNV-1" vertex="1">
          <mxGeometry x="190" y="330" width="160" height="40" as="geometry" />
        </mxCell>
        <mxCell id="Y4_7NDd8b4az4wbQNTcm-2" value="" style="edgeStyle=orthogonalEdgeStyle;rounded=0;orthogonalLoop=1;jettySize=auto;html=1;" edge="1" parent="WIyWlLk6GJQsqaUBKTNV-1" source="-dxW9wcBUc4BnaEZA0Z--2" target="WIyWlLk6GJQsqaUBKTNV-11">
          <mxGeometry relative="1" as="geometry" />
        </mxCell>
        <mxCell id="-dxW9wcBUc4BnaEZA0Z--2" value="&lt;font color=&quot;#ffffff&quot;&gt;Print Hello name&lt;/font&gt;" style="shape=parallelogram;perimeter=parallelogramPerimeter;whiteSpace=wrap;html=1;fixedSize=1;fillColor=#0000CC;" parent="WIyWlLk6GJQsqaUBKTNV-1" vertex="1">
          <mxGeometry x="360" y="510" width="163" height="40" as="geometry" />
        </mxCell>
        <mxCell id="Y4_7NDd8b4az4wbQNTcm-0" value="&lt;font color=&quot;#ffffff&quot;&gt;Is name frank or george&lt;/font&gt;" style="rhombus;whiteSpace=wrap;html=1;strokeColor=#000000;fillColor=#FF66FF;" vertex="1" parent="WIyWlLk6GJQsqaUBKTNV-1">
          <mxGeometry x="180" y="420" width="180" height="70" as="geometry" />
        </mxCell>
        <mxCell id="Y4_7NDd8b4az4wbQNTcm-5" value="&lt;font color=&quot;#ffffff&quot;&gt;STOP&lt;/font&gt;" style="rounded=1;whiteSpace=wrap;html=1;fontSize=12;glass=0;strokeWidth=1;shadow=0;fillColor=#FF0000;strokeColor=#000000;" vertex="1" parent="WIyWlLk6GJQsqaUBKTNV-1">
          <mxGeometry x="60" y="510" width="120" height="40" as="geometry" />
        </mxCell>
        <mxCell id="Y4_7NDd8b4az4wbQNTcm-7" value="" style="endArrow=classic;html=1;exitX=1;exitY=0.5;exitDx=0;exitDy=0;entryX=0.5;entryY=0;entryDx=0;entryDy=0;" edge="1" parent="WIyWlLk6GJQsqaUBKTNV-1" source="Y4_7NDd8b4az4wbQNTcm-0" target="-dxW9wcBUc4BnaEZA0Z--2">
          <mxGeometry relative="1" as="geometry">
            <mxPoint x="218" y="570" as="sourcePoint" />
            <mxPoint x="318" y="570" as="targetPoint" />
            <Array as="points">
              <mxPoint x="442" y="455" />
            </Array>
          </mxGeometry>
        </mxCell>
        <mxCell id="Y4_7NDd8b4az4wbQNTcm-8" value="TRUE" style="edgeLabel;resizable=0;html=1;align=center;verticalAlign=middle;" connectable="0" vertex="1" parent="Y4_7NDd8b4az4wbQNTcm-7">
          <mxGeometry relative="1" as="geometry">
            <mxPoint x="1" as="offset" />
          </mxGeometry>
        </mxCell>
        <mxCell id="Y4_7NDd8b4az4wbQNTcm-9" value="" style="endArrow=classic;html=1;exitX=0;exitY=0.5;exitDx=0;exitDy=0;entryX=0.5;entryY=0;entryDx=0;entryDy=0;" edge="1" parent="WIyWlLk6GJQsqaUBKTNV-1" source="Y4_7NDd8b4az4wbQNTcm-0" target="Y4_7NDd8b4az4wbQNTcm-5">
          <mxGeometry relative="1" as="geometry">
            <mxPoint x="218" y="570" as="sourcePoint" />
            <mxPoint x="318" y="570" as="targetPoint" />
            <Array as="points">
              <mxPoint x="120" y="455" />
            </Array>
          </mxGeometry>
        </mxCell>
        <mxCell id="Y4_7NDd8b4az4wbQNTcm-10" value="FALSE" style="edgeLabel;resizable=0;html=1;align=center;verticalAlign=middle;" connectable="0" vertex="1" parent="Y4_7NDd8b4az4wbQNTcm-9">
          <mxGeometry relative="1" as="geometry" />
        </mxCell>
      </root>
    </mxGraphModel>
  </diagram>
</mxfile>
